<svg aria-hidden="true" style="position: absolute; width: 0; height: 0; overflow: hidden;" version="1.1" xmlns="http://www.w3.org/2000/svg" xmlns:xlink="http://www.w3.org/1999/xlink">
<defs>
<symbol id="icon-Facebook" viewBox="0 0 32 32">
<path d="M17.668 25.408v-8.706h2.402l0.318-3h-2.721l0.004-1.501c0-0.782 0.074-1.202 1.198-1.202h1.502v-3h-2.403c-2.886 0-3.902 1.455-3.902 3.902v1.801h-1.8v3h1.8v8.704h3.602z"></path>
</symbol>
<symbol id="icon-Instagram" viewBox="0 0 32 32">
<path d="M12.482 7.518c0.91-0.042 1.201-0.052 3.518-0.052h-0.002c2.318 0 2.608 0.010 3.518 0.052s1.53 0.186 2.074 0.396c0.592 0.226 1.096 0.561 1.511 0.983l0.001 0.001c0.423 0.416 0.758 0.92 0.974 1.483l0.010 0.029c0.21 0.542 0.354 1.162 0.397 2.071 0.041 0.91 0.052 1.201 0.052 3.518s-0.011 2.608-0.052 3.518c-0.042 0.908-0.186 1.528-0.396 2.070-0.227 0.592-0.562 1.096-0.985 1.511l-0.001 0.001c-0.415 0.423-0.919 0.758-1.482 0.974l-0.029 0.010c-0.542 0.212-1.163 0.355-2.072 0.397-0.91 0.042-1.2 0.052-3.518 0.052s-2.608-0.010-3.518-0.052c-0.909-0.042-1.528-0.185-2.072-0.396-0.591-0.226-1.095-0.561-1.51-0.984l-0.001-0.001c-0.423-0.416-0.758-0.92-0.974-1.483l-0.010-0.029c-0.211-0.542-0.355-1.162-0.397-2.071s-0.052-1.2-0.052-3.518 0.011-2.608 0.052-3.518c0.040-0.909 0.184-1.528 0.396-2.072 0.227-0.591 0.562-1.095 0.984-1.511l0.001-0.001c0.416-0.423 0.92-0.758 1.483-0.974l0.029-0.010c0.542-0.21 1.162-0.354 2.071-0.396zM15.716 9.004h-0.48v-0.002c-1.591 0.002-1.896 0.012-2.683 0.048-0.832 0.038-1.284 0.177-1.584 0.294-0.385 0.144-0.713 0.362-0.982 0.638l-0.001 0.001c-0.277 0.269-0.494 0.597-0.632 0.963l-0.006 0.018c-0.117 0.301-0.256 0.752-0.294 1.584-0.041 0.9-0.049 1.168-0.049 3.447s0.008 2.549 0.048 3.448c0.038 0.832 0.178 1.284 0.294 1.584 0.155 0.399 0.34 0.682 0.638 0.982s0.584 0.483 0.982 0.638c0.301 0.117 0.752 0.256 1.584 0.294 0.9 0.041 1.17 0.050 3.449 0.050s2.549-0.010 3.448-0.050c0.832-0.038 1.284-0.176 1.584-0.294 0.385-0.144 0.713-0.362 0.981-0.638l0.001-0.001c0.298-0.298 0.483-0.582 0.638-0.98 0.117-0.301 0.256-0.752 0.294-1.584 0.041-0.9 0.050-1.17 0.050-3.448s-0.008-2.547-0.050-3.446c-0.038-0.832-0.177-1.284-0.294-1.584-0.145-0.385-0.362-0.713-0.638-0.981l-0.001-0.001c-0.268-0.277-0.596-0.494-0.963-0.632l-0.018-0.006c-0.301-0.117-0.752-0.256-1.584-0.294-0.9-0.041-1.17-0.049-3.448-0.049h-0.286zM11.618 16c0-2.42 1.962-4.382 4.382-4.382s4.382 1.962 4.382 4.382v0c0 2.42-1.962 4.382-4.382 4.382s-4.382-1.962-4.382-4.382v0zM18.846 16c0-1.571-1.274-2.845-2.845-2.845s-2.845 1.274-2.845 2.845v0c0 1.571 1.274 2.845 2.845 2.845s2.845-1.274 2.845-2.845v0zM19.532 11.445c0-0.566 0.458-1.024 1.024-1.024s1.024 0.458 1.024 1.024v0c0 0.566-0.458 1.024-1.024 1.024s-1.024-0.458-1.024-1.024v0z"></path>
</symbol>
<symbol id="icon-shopping" viewBox="0 0 32 32">
<path d="M12.129 27.291c-0.178 0-0.322 0.144-0.322 0.322s0.144 0.322 0.322 0.322v0c0.178 0 0.323-0.144 0.323-0.323s-0.144-0.323-0.323-0.323v0zM9.87 27.613c0-1.247 1.011-2.259 2.259-2.259s2.259 1.011 2.259 2.259v0c0 1.247-1.011 2.259-2.259 2.259s-2.259-1.011-2.259-2.259v0zM26.323 27.291c-0.178 0-0.322 0.144-0.322 0.322s0.144 0.322 0.322 0.322v0c0.178 0 0.323-0.144 0.323-0.323s-0.144-0.323-0.323-0.323v0zM24.064 27.613c0-1.247 1.011-2.259 2.259-2.259s2.259 1.011 2.259 2.259v0c-0.027 1.226-1.028 2.21-2.258 2.21s-2.231-0.984-2.258-2.208l-0-0.003zM0.839 1.806c0-0.535 0.434-0.968 0.967-0.968h5.161c0.461 0 0.859 0.326 0.95 0.778l1.135 5.673h21.141c0.534 0.001 0.967 0.434 0.967 0.968 0 0.064-0.006 0.127-0.018 0.188l0.001-0.006-2.065 10.833c-0.334 1.64-1.765 2.857-3.48 2.857-0.021 0-0.041-0-0.062-0.001l0.003 0h-12.525c-0.017 0-0.037 0-0.057 0-1.715 0-3.145-1.216-3.477-2.833l-0.004-0.023-2.158-10.778c-0.006-0.024-0.013-0.055-0.018-0.086l-0.001-0.005-1.125-5.63h-4.369c-0.534 0-0.968-0.433-0.968-0.967v-0zM9.44 9.226l1.935 9.669c0.152 0.746 0.803 1.299 1.582 1.299 0.011 0 0.021-0 0.031-0l-0.002 0h12.579c0.009 0 0.020 0 0.031 0 0.778 0 1.428-0.552 1.579-1.285l0.002-0.010v-0.003l1.845-9.669h-19.584z"></path>
</symbol>
<symbol id="icon-Telegram" viewBox="0 0 32 32">
<path d="M13.339 19.255v-0.001l7.418-6.695c0.326-0.289-0.071-0.43-0.503-0.168l-9.156 5.777-3.955-1.234c-0.854-0.262-0.861-0.848 0.192-1.27l15.411-5.942c0.704-0.32 1.384 0.169 1.115 1.246l-2.625 12.368c-0.184 0.879-0.714 1.090-1.45 0.683l-3.998-2.954-1.939 1.886c-0.215 0.209-0.393 0.382-0.782 0.382l0.272-4.078z"></path>
</symbol>
<symbol id="icon-4" viewBox="0 0 158 32">
<path fill="#d8d8d8" style="fill: var(--color1, #d8d8d8)" d="M97.026 10.915l0.016-0.006c0.268-0.113 0.511-0.273 0.718-0.467l0.001-0.001c0.203-0.192 0.37-0.421 0.496-0.69 0.121-0.263 0.182-0.543 0.182-0.842 0-0.307-0.061-0.595-0.182-0.861s-0.287-0.501-0.497-0.703l0.001 0.001c-0.421-0.399-0.989-0.644-1.614-0.644-0.004 0-0.009 0-0.012 0h0.001c-0.007-0-0.013-0-0.020-0-0.304 0-0.593 0.062-0.842 0.169l-0.015 0.006c-0.521 0.225-0.942 0.639-1.18 1.171-0.117 0.267-0.176 0.554-0.176 0.861v-0.001c-0 0.004-0 0.008-0 0.012 0 0.301 0.065 0.586 0.176 0.831l0.006 0.014c0.115 0.256 0.279 0.486 0.48 0.678l-0.001-0.001c0.202 0.193 0.437 0.352 0.711 0.472 0.266 0.118 0.553 0.177 0.861 0.177 0.315 0 0.612-0.059 0.891-0.177zM51.849 24.926h-10.647v-17.668h4.099v14.394h6.548v3.274zM58.907 25.12c-0.962 0-1.837-0.152-2.626-0.455l-0.040-0.014c-0.753-0.289-1.431-0.73-1.996-1.283-0.571-0.563-1.011-1.245-1.322-2.050s-0.467-1.708-0.467-2.71c0-0.995 0.156-1.89 0.467-2.686l0.013-0.039c0.293-0.755 0.743-1.432 1.309-1.992l-0.001 0.001c0.567-0.551 1.245-0.988 2.038-1.286 0.788-0.3 1.664-0.449 2.626-0.449 0.954 0 1.823 0.149 2.607 0.449l0.039 0.013c0.748 0.284 1.421 0.721 1.98 1.272 0.562 0.557 0.998 1.235 1.309 2.031s0.467 1.692 0.467 2.686c0 1.002-0.155 1.906-0.467 2.71s-0.748 1.487-1.309 2.050l0-0c-0.559 0.555-1.232 0.995-2.020 1.297-0.784 0.303-1.653 0.455-2.607 0.455zM56.955 21.416c0.413 0.611 1.063 0.915 1.952 0.915 0.865 0 1.501-0.305 1.91-0.915s0.612-1.538 0.612-2.783c0-1.245-0.204-2.17-0.612-2.776s-1.044-0.909-1.91-0.909c-0.889 0-1.54 0.303-1.952 0.909s-0.619 1.532-0.619 2.776c0 1.245 0.206 2.173 0.619 2.783zM71.81 29.256c1.002 0 1.891-0.127 2.668-0.382s1.431-0.592 1.964-1.012c0.534-0.421 0.938-0.901 1.213-1.443s0.413-1.095 0.413-1.661c0-0.606-0.111-1.105-0.333-1.497-0.217-0.385-0.513-0.701-0.869-0.934l-0.010-0.006c-0.358-0.23-0.776-0.407-1.223-0.505l-0.025-0.005c-0.401-0.095-0.889-0.174-1.387-0.221l-0.045-0.003c-0.404-0.040-0.9-0.071-1.401-0.084l-0.030-0.001c-0.457-0.010-0.89-0.036-1.319-0.078l0.070 0.006c-0.364-0.037-0.657-0.101-0.879-0.194s-0.333-0.245-0.333-0.455c0-0.211 0.137-0.397 0.413-0.558 0.348 0.048 0.719 0.072 1.116 0.072 0.015 0 0.033 0 0.050 0 0.695 0 1.367-0.104 1.999-0.298l-0.048 0.013c0.619-0.184 1.158-0.462 1.631-0.822l-0.012 0.009c0.456-0.352 0.817-0.778 1.080-1.28 0.263-0.5 0.394-1.066 0.394-1.697 0-0.388-0.057-0.764-0.17-1.128l0.921-0.205c0.283-0.065 0.483-0.157 0.6-0.279s0.176-0.287 0.176-0.497v-1.371h-3.795c-0.404-0.194-0.843-0.344-1.316-0.449-0.442-0.1-0.95-0.158-1.471-0.158-0.013 0-0.027 0-0.040 0h0.002c-0.019-0-0.040-0-0.062-0-0.708 0-1.392 0.104-2.037 0.298l0.050-0.013c-0.631 0.19-1.179 0.461-1.643 0.813-0.454 0.342-0.823 0.772-1.087 1.265l-0.010 0.021c-0.267 0.505-0.401 1.073-0.401 1.704 0 0.76 0.189 1.427 0.564 2.001s0.891 1.035 1.546 1.382c-0.291 0.138-0.541 0.295-0.752 0.473s-0.384 0.364-0.521 0.557-0.238 0.394-0.303 0.6c-0.059 0.175-0.094 0.378-0.097 0.587v0.001c0 0.445 0.084 0.812 0.254 1.103s0.396 0.53 0.68 0.716c-0.59 0.218-1.055 0.519-1.395 0.903s-0.509 0.856-0.509 1.413c0 0.429 0.113 0.84 0.339 1.237s0.576 0.745 1.049 1.048c0.472 0.303 1.067 0.547 1.782 0.734 0.716 0.185 1.566 0.278 2.553 0.278zM71.015 17.851c-0.222-0.085-0.406-0.202-0.552-0.352s-0.253-0.325-0.321-0.527c-0.069-0.202-0.104-0.424-0.104-0.667 0-0.51 0.14-0.909 0.419-1.201s0.729-0.436 1.352-0.436c0.622 0 1.073 0.145 1.352 0.436s0.419 0.691 0.419 1.201c0 0.493-0.14 0.894-0.419 1.206s-0.729 0.467-1.352 0.467c-0.307 0-0.573-0.042-0.795-0.126zM71.882 26.673c-0.501 0-0.915-0.030-1.243-0.091s-0.588-0.143-0.782-0.249c-0.194-0.104-0.329-0.23-0.406-0.376-0.073-0.137-0.115-0.3-0.115-0.472 0-0.005 0-0.009 0-0.014v0.001c0-0.251 0.075-0.475 0.224-0.674 0.163-0.209 0.353-0.388 0.567-0.533l0.009-0.006c0.348 0.040 0.699 0.067 1.055 0.079s0.699 0.025 1.031 0.042c0.332 0.017 0.641 0.040 0.928 0.072s0.537 0.085 0.752 0.158c0.214 0.072 0.384 0.169 0.509 0.291 0.126 0.121 0.189 0.283 0.189 0.485 0 0.186-0.040 0.358-0.121 0.515s-0.225 0.293-0.431 0.407c-0.205 0.113-0.483 0.202-0.83 0.266s-0.792 0.098-1.334 0.098zM88.264 24.665l0.039-0.013c0.748-0.288 1.421-0.729 1.98-1.284 0.562-0.563 0.999-1.245 1.309-2.050s0.467-1.708 0.467-2.71c0-0.995-0.156-1.89-0.467-2.686l-0.013-0.039c-0.292-0.753-0.737-1.43-1.296-1.992l0.001 0.001c-0.56-0.552-1.233-0.988-2.020-1.286-0.784-0.3-1.653-0.449-2.607-0.449-0.962 0-1.837 0.149-2.625 0.449l-0.040 0.013c-0.753 0.285-1.431 0.722-1.996 1.272-0.57 0.557-1.011 1.235-1.322 2.031s-0.467 1.692-0.467 2.686c0 1.002 0.155 1.906 0.467 2.71s0.752 1.487 1.321 2.050l-0.001-0.001c0.567 0.555 1.245 0.995 2.039 1.298 0.788 0.303 1.663 0.455 2.625 0.455 0.954 0 1.823-0.152 2.607-0.455zM85.657 22.331c-0.889 0-1.539-0.305-1.952-0.915s-0.618-1.538-0.618-2.783c0-1.245 0.205-2.17 0.618-2.776s1.063-0.909 1.952-0.909c0.866 0 1.502 0.303 1.91 0.909s0.613 1.532 0.613 2.776c0 1.245-0.205 2.173-0.613 2.783s-1.044 0.915-1.91 0.915zM98.003 24.926h-3.759v-12.575h3.759v12.575zM104.793 24.089l-0.005-0.005c0.352 0.307 0.753 0.56 1.218 0.757 0.445 0.185 0.994 0.278 1.649 0.278 0.8 0 1.53-0.165 2.189-0.497l0.029-0.013c0.646-0.331 1.212-0.796 1.669-1.369 0.473-0.589 0.841-1.285 1.104-2.086s0.394-1.673 0.394-2.619c0-1.011-0.115-1.914-0.346-2.71s-0.547-1.469-0.952-2.019l-0.008-0.012c-0.37-0.512-0.853-0.936-1.435-1.248-0.557-0.291-1.164-0.437-1.819-0.437l0.002 0c-0.016-0-0.031-0-0.047-0-0.412 0-0.813 0.049-1.162 0.133l-0.034 0.007c-0.706 0.173-1.352 0.496-1.894 0.927l-0.013 0.010c-0.274 0.216-0.53 0.454-0.769 0.717l-0.279-0.921c-0.065-0.211-0.176-0.368-0.333-0.473s-0.354-0.157-0.589-0.157h-2.328v16.564h3.759v-4.827zM106.757 22.355c-0.364 0-0.711-0.062-1.043-0.188s-0.638-0.345-0.921-0.661v-5.336c0.162-0.194 0.323-0.365 0.485-0.515s0.337-0.273 0.527-0.37 0.396-0.172 0.618-0.224c0.222-0.053 0.472-0.079 0.746-0.079 0.299 0 0.57 0.061 0.813 0.182s0.451 0.322 0.624 0.6c0.174 0.279 0.31 0.644 0.407 1.097s0.146 1.011 0.146 1.673c0 0.696-0.061 1.286-0.182 1.771s-0.29 0.879-0.504 1.182c-0.214 0.303-0.467 0.523-0.758 0.66-0.274 0.13-0.595 0.206-0.934 0.206-0.008 0-0.017-0-0.025-0h0.001zM120.648 24.805c-0.659 0.211-1.417 0.315-2.274 0.315-0.455-0-0.899-0.044-1.33-0.128l0.044 0.007c-0.484-0.091-0.901-0.204-1.305-0.346l0.062 0.019c-0.429-0.147-0.796-0.313-1.143-0.509l0.034 0.018c-0.331-0.183-0.618-0.386-0.878-0.617l0.005 0.004 0.873-1.382c0.098-0.154 0.223-0.282 0.371-0.379l0.005-0.003c0.146-0.093 0.335-0.14 0.57-0.14 0.218 0 0.414 0.049 0.588 0.146l0.564 0.316c0.202 0.113 0.439 0.218 0.709 0.315s0.612 0.146 1.025 0.146c0.291 0 0.537-0.030 0.739-0.091s0.364-0.143 0.485-0.248c0.121-0.105 0.211-0.222 0.267-0.352s0.085-0.263 0.085-0.4c0-0.008 0-0.017 0-0.026 0-0.233-0.098-0.444-0.254-0.593l-0-0c-0.189-0.172-0.41-0.313-0.652-0.412l-0.015-0.005c-0.249-0.109-0.562-0.221-0.882-0.314l-0.058-0.014c-0.352-0.101-0.71-0.216-1.074-0.345-0.425-0.152-0.779-0.309-1.12-0.489l0.047 0.023c-0.362-0.188-0.671-0.418-0.939-0.69l-0-0c-0.278-0.287-0.504-0.628-0.659-1.004l-0.008-0.021c-0.17-0.404-0.255-0.893-0.255-1.467 0-0.534 0.104-1.041 0.31-1.522 0.22-0.501 0.534-0.925 0.923-1.264l0.004-0.004c0.413-0.364 0.93-0.653 1.552-0.867s1.351-0.321 2.183-0.321c0.453 0 0.892 0.040 1.316 0.121s0.823 0.194 1.194 0.339c0.391 0.153 0.727 0.326 1.041 0.529l-0.022-0.014c0.307 0.198 0.578 0.414 0.813 0.648l-0.849 1.322c-0.078 0.133-0.182 0.243-0.306 0.325l-0.004 0.002c-0.111 0.061-0.244 0.098-0.385 0.098-0.012 0-0.023-0-0.034-0.001l0.002 0c-0.179 0-0.356-0.039-0.534-0.115l-0.576-0.248c-0.184-0.082-0.415-0.166-0.653-0.237l-0.045-0.011c-0.252-0.073-0.541-0.116-0.841-0.116-0.016 0-0.031 0-0.047 0l0.002-0c-0.477 0-0.843 0.091-1.097 0.273-0.233 0.16-0.383 0.425-0.383 0.725 0 0.011 0 0.023 0.001 0.034l-0-0.002c0 0.234 0.083 0.429 0.248 0.582s0.387 0.289 0.661 0.407c0.275 0.117 0.586 0.227 0.934 0.333 0.348 0.104 0.703 0.222 1.067 0.351s0.719 0.281 1.067 0.455c0.348 0.174 0.659 0.388 0.934 0.643s0.495 0.564 0.661 0.928 0.248 0.8 0.248 1.309c0 0.623-0.113 1.197-0.339 1.722-0.237 0.541-0.581 0.995-1.007 1.354l-0.006 0.005c-0.448 0.38-1.002 0.675-1.661 0.885zM129.749 25.12c0.404 0 0.776-0.038 1.116-0.115s0.657-0.182 0.952-0.316c0.295-0.133 0.572-0.295 0.83-0.485s0.509-0.402 0.752-0.637l0.231 0.728c0.146 0.421 0.452 0.631 0.921 0.631h2.328v-12.575h-3.759v8.963c-0.302 0.28-0.647 0.519-1.024 0.705l-0.025 0.011c-0.334 0.161-0.725 0.254-1.139 0.254-0.007 0-0.013-0-0.020-0h0.001c-0.55 0-0.966-0.17-1.249-0.509s-0.424-0.82-0.424-1.443v-7.979h-3.759v7.979c0 0.696 0.093 1.334 0.279 1.917 0.186 0.581 0.461 1.086 0.824 1.516 0.362 0.423 0.809 0.762 1.317 0.991l0.024 0.010c0.529 0.238 1.138 0.357 1.825 0.357zM143.549 15.832v9.095h-3.759v-12.575h2.328c0.234 0 0.43 0.053 0.588 0.157s0.269 0.263 0.333 0.473l0.206 0.679c0.211-0.218 0.429-0.418 0.655-0.6 0.443-0.361 0.974-0.634 1.554-0.782l0.028-0.006c0.303-0.077 0.637-0.115 1-0.115 0.76 0 1.389 0.196 1.885 0.588s0.875 0.915 1.133 1.571c0.211-0.387 0.467-0.719 0.771-0.994 0.283-0.26 0.606-0.483 0.958-0.657l0.024-0.011c0.352-0.169 0.723-0.295 1.116-0.376 0.352-0.077 0.756-0.121 1.17-0.121h0c0.719 0 1.357 0.107 1.916 0.321 0.552 0.209 1.021 0.528 1.398 0.933l0.002 0.002c0.376 0.408 0.661 0.909 0.855 1.503s0.291 1.267 0.291 2.019v7.992h-3.759v-7.992c0-1.301-0.558-1.952-1.673-1.952-0.509 0-0.932 0.168-1.267 0.504s-0.504 0.819-0.504 1.448v7.992h-3.759v-7.992c0-0.719-0.141-1.224-0.424-1.516s-0.699-0.436-1.249-0.436c-0.002 0-0.004 0-0.006 0-0.35 0-0.68 0.085-0.97 0.236l0.012-0.006c-0.303 0.153-0.588 0.36-0.855 0.618z"></path>
<path fill="#d8d8d8" style="fill: var(--color1, #d8d8d8)" d="M4.716 0h22.232c2.604 0 4.716 2.111 4.716 4.716v22.232c0 2.604-2.111 4.716-4.716 4.716h-22.232c-2.604 0-4.716-2.111-4.716-4.716v-22.232c0-2.604 2.111-4.716 4.716-4.716z"></path>
<path fill="#fff" style="fill: var(--color2, #fff)" d="M16.168 22.568l-7.523 3.955 1.437-8.377-6.087-5.933 8.412-1.222 3.762-7.623 3.762 7.623 8.413 1.221-6.088 5.933 1.437 8.379-7.523-3.956z"></path>
</symbol>
<symbol id="icon-3" viewBox="0 0 175 32">
<path fill="#d8d8d8" style="fill: var(--color1, #d8d8d8)" d="M100.472 10.562c-0.761 0-1.375-0.212-1.843-0.636s-0.702-0.951-0.702-1.579l0 0.002c-0-0.013-0-0.026-0-0.039 0-0.615 0.271-1.166 0.703-1.543 0.468-0.424 1.082-0.636 1.843-0.636s1.375 0.201 1.843 0.603 0.702 0.918 0.702 1.547c0 0.659-0.235 1.203-0.702 1.634s-1.083 0.648-1.843 0.648zM52.219 23.771h-11.674v-15.36h4.344v11.915h7.33v3.445zM59.658 23.969c-1.273 0-2.421-0.263-3.445-0.79-1.023-0.526-1.825-1.257-2.402-2.194-0.578-0.936-0.867-1.996-0.867-3.182 0-1.17 0.289-2.223 0.866-3.16s1.375-1.664 2.392-2.183c1.016-0.52 2.168-0.779 3.456-0.779s2.443 0.26 3.467 0.779c1.024 0.519 1.822 1.243 2.392 2.172s0.856 1.986 0.856 3.17c0 1.186-0.286 2.246-0.856 3.182-0.571 0.937-1.368 1.669-2.392 2.194-1.024 0.527-2.179 0.791-3.467 0.791zM57.858 19.899c0.469 0.504 1.068 0.757 1.8 0.757s1.331-0.251 1.799-0.757c0.469-0.505 0.702-1.204 0.702-2.095 0-0.878-0.234-1.566-0.702-2.063s-1.067-0.746-1.799-0.746-1.331 0.248-1.8 0.747c-0.468 0.497-0.702 1.184-0.702 2.062 0 0.893 0.234 1.591 0.702 2.095zM74.118 28.226c-1.17 0-2.267-0.131-3.291-0.395s-1.895-0.651-2.611-1.163l1.514-2.918c0.483 0.395 1.093 0.706 1.832 0.933s1.467 0.34 2.183 0.34c1.097 0 1.902-0.241 2.414-0.724s0.768-1.199 0.768-2.15v-0.395c-0.805 0.936-1.982 1.405-3.533 1.405-1.053 0-2.026-0.238-2.918-0.713l-0.029-0.014c-0.86-0.461-1.581-1.148-2.099-2.005-0.527-0.87-0.79-1.876-0.79-3.017 0-1.126 0.263-2.125 0.79-2.995l0.014-0.024c0.504-0.833 1.226-1.519 2.115-1.995 0.891-0.475 1.864-0.713 2.918-0.713 1.696 0 2.94 0.549 3.73 1.646v-1.448h3.971v9.721c0 2.209-0.6 3.865-1.799 4.97s-2.926 1.657-5.179 1.657zM72.517 19.163c0.497 0.453 1.118 0.68 1.865 0.68s1.364-0.227 1.854-0.68 0.735-1.038 0.735-1.755c0-0.716-0.242-1.298-0.724-1.745s-1.105-0.669-1.865-0.669c-0.761 0-1.387 0.223-1.877 0.669s-0.735 1.029-0.735 1.745 0.249 1.302 0.747 1.755zM89.742 23.969c-1.273 0-2.421-0.263-3.445-0.79-1.024-0.526-1.825-1.257-2.403-2.194-0.578-0.936-0.866-1.996-0.866-3.182 0-1.17 0.289-2.223 0.866-3.16s1.375-1.664 2.392-2.183c1.016-0.52 2.168-0.779 3.456-0.779s2.443 0.26 3.467 0.779c1.024 0.519 1.821 1.243 2.392 2.172s0.856 1.986 0.856 3.17c0 1.186-0.285 2.246-0.856 3.182-0.571 0.937-1.368 1.669-2.392 2.194-1.024 0.527-2.18 0.79-3.467 0.79zM87.942 19.899c0.468 0.504 1.068 0.757 1.8 0.757s1.331-0.251 1.799-0.757c0.469-0.505 0.702-1.204 0.702-2.095 0-0.878-0.234-1.566-0.702-2.063s-1.067-0.746-1.799-0.746-1.332 0.248-1.8 0.747c-0.468 0.497-0.702 1.184-0.702 2.062 0 0.893 0.235 1.591 0.702 2.095zM102.556 11.878h-4.169v11.893h4.169v-11.893zM109.424 28.028h-4.169v-16.15h3.972v1.186c0.776-0.922 1.946-1.383 3.511-1.383 1.083 0 2.066 0.252 2.952 0.757s1.587 1.221 2.106 2.15c0.52 0.929 0.779 2.008 0.779 3.237s-0.26 2.308-0.779 3.237c-0.519 0.929-1.221 1.646-2.106 2.151s-1.869 0.757-2.952 0.757c-1.39 0-2.494-0.417-3.314-1.251v5.31zM110.060 19.899c0.469 0.504 1.068 0.757 1.8 0.757s1.331-0.251 1.8-0.757c0.468-0.505 0.702-1.196 0.702-2.074s-0.234-1.569-0.702-2.073c-0.469-0.505-1.068-0.757-1.8-0.757s-1.331 0.252-1.8 0.757c-0.468 0.504-0.702 1.196-0.702 2.073s0.234 1.57 0.702 2.074zM124.828 23.969c1.243 0 2.308-0.168 3.192-0.504s1.554-0.801 2.008-1.394c0.424-0.54 0.681-1.229 0.681-1.978 0-0.010-0-0.021-0-0.031v0.002c0-0.907-0.238-1.613-0.713-2.118-0.445-0.48-1.012-0.841-1.652-1.035l-0.026-0.007c-0.644-0.19-1.455-0.358-2.436-0.505-0.775-0.117-1.331-0.23-1.668-0.34s-0.504-0.304-0.504-0.581c0-0.249 0.154-0.45 0.461-0.603s0.79-0.231 1.448-0.231c1.228 0 2.37 0.293 3.422 0.878l1.251-2.83c-0.571-0.322-1.28-0.571-2.129-0.747-0.771-0.167-1.656-0.263-2.563-0.263-0.001 0-0.002 0-0.004 0h0c-1.214 0-2.257 0.172-3.127 0.516s-1.532 0.812-1.986 1.404c-0.424 0.544-0.68 1.237-0.68 1.989 0 0.014 0 0.028 0 0.043l-0-0.002c0 0.922 0.241 1.638 0.724 2.151 0.456 0.49 1.039 0.856 1.696 1.046l0.026 0.007c0.665 0.19 1.474 0.344 2.424 0.461 0.746 0.102 1.291 0.208 1.635 0.318s0.516 0.297 0.516 0.56-0.143 0.465-0.428 0.603c-0.285 0.139-0.764 0.208-1.437 0.208-0.731 0-1.47-0.099-2.216-0.296-0.746-0.198-1.39-0.465-1.931-0.802l-1.25 2.853c0.585 0.366 1.36 0.663 2.326 0.889s1.945 0.34 2.94 0.34zM139.464 23.595c-0.614 0.249-1.265 0.373-1.953 0.373-1.536 0-2.761-0.453-3.675-1.36s-1.371-2.267-1.371-4.082v-6.649h4.169v5.969c0 0.892 0.168 1.544 0.505 1.953s0.826 0.615 1.47 0.615c0.658 0 1.196-0.231 1.613-0.692s0.626-1.166 0.626-2.117v-5.727h4.169v11.893h-3.972v-1.272c-0.429 0.471-0.957 0.844-1.552 1.087l-0.029 0.010zM151.861 23.771v-5.902c0-0.892 0.19-1.558 0.571-1.997s0.892-0.658 1.536-0.658c1.2 0 1.8 0.812 1.8 2.436v6.122h4.169v-5.902c0-0.892 0.19-1.558 0.571-1.997s0.885-0.658 1.514-0.658c0.571 0 1.013 0.198 1.327 0.593s0.472 1.009 0.472 1.843v6.122h4.169v-6.802c0-1.77-0.435-3.093-1.305-3.972s-2.037-1.317-3.5-1.317c-0.848 0-1.631 0.161-2.347 0.483-0.715 0.319-1.311 0.789-1.77 1.372l-0.007 0.010c-0.392-0.609-0.936-1.089-1.579-1.394l-0.023-0.010c-0.658-0.307-1.404-0.461-2.238-0.461-0.717 0-1.379 0.121-1.986 0.362-0.62 0.248-1.144 0.618-1.566 1.083l-0.003 0.004v-1.251h-3.972v11.893h4.169zM174.167 23.267c-0.475 0.468-1.072 0.702-1.789 0.702-0.702 0-1.294-0.234-1.777-0.702s-0.725-1.061-0.725-1.778c0-0.731 0.238-1.324 0.713-1.778s1.072-0.68 1.788-0.68c0.731 0 1.332 0.227 1.8 0.68s0.702 1.046 0.702 1.778c0 0.716-0.238 1.309-0.713 1.778zM15.787 0l15.787 31.573h-8.101c-10.784 0-17.798-11.349-12.975-20.994l5.29-10.579z"></path>
<path fill="#d8d8d8" style="fill: var(--color1, #d8d8d8)" d="M8.96 27.093c0 2.474-2.006 4.48-4.48 4.48s-4.48-2.006-4.48-4.48c0-2.474 2.006-4.48 4.48-4.48s4.48 2.006 4.48 4.48z"></path>
</symbol>
<symbol id="icon-2" viewBox="0 0 179 32">
<path fill="#d8d8d8" style="fill: var(--color1, #d8d8d8)" d="M106.514 5.218h-4.418v3.849h4.418v-3.849zM50.161 21.97h-8.619v-15.858h-4.229v19.3h12.848v-3.442zM62.684 24.761l0.032-0.016c1.038-0.554 1.895-1.402 2.475-2.464 0.587-1.076 0.881-2.344 0.881-3.809s-0.294-2.728-0.881-3.795l-0.016-0.031c-0.569-1.027-1.425-1.874-2.491-2.449-1.084-0.587-2.349-0.881-3.795-0.881-1.482 0-2.765 0.294-3.849 0.881l-0.033 0.016c-1.034 0.559-1.889 1.405-2.475 2.464-0.587 1.066-0.881 2.331-0.881 3.795s0.294 2.733 0.881 3.809l0.016 0.031c0.564 1.031 1.421 1.879 2.492 2.449 1.084 0.578 2.367 0.867 3.849 0.867 1.446 0 2.711-0.289 3.795-0.867zM58.889 22.512c-1.031 0-1.816-0.329-2.359-0.99-0.542-0.659-0.813-1.675-0.813-3.049 0-1.355 0.276-2.362 0.826-3.021 0.552-0.661 1.333-0.99 2.345-0.99 0.994 0 1.762 0.329 2.304 0.989s0.813 1.667 0.813 3.022c0 1.374-0.271 2.391-0.813 3.049s-1.31 0.99-2.304 0.99zM80.723 29.776c1.256-1.138 1.883-2.81 1.883-5.016v-13.092h-4.066v1.938l-0.073-0.126c-0.286-0.458-0.666-0.857-1.141-1.196l-0.208-0.141c-0.858-0.551-1.848-0.825-2.968-0.825-1.192 0-2.249 0.288-3.172 0.866s-1.644 1.379-2.168 2.4c-0.523 1.021-0.786 2.217-0.786 3.591s0.263 2.576 0.786 3.605c0.524 1.031 1.247 1.831 2.168 2.4s1.979 0.854 3.172 0.854h-0.002c0.014 0 0.028 0 0.042 0 0.735 0 1.434-0.155 2.034-0.421 0.642-0.28 1.189-0.646 1.64-1.097l0-0c0.24-0.238 0.457-0.5 0.658-0.801l0.018-0.029 0.001 2.403c0 1.040-0.249 1.831-0.748 2.373l-0.12 0.12c-0.578 0.542-1.455 0.813-2.63 0.813h-0.001c-0.875-0.002-1.725-0.11-2.466-0.297-0.831-0.2-1.653-0.506-2.466-0.922l-0.624 3.036c1.626 0.85 3.524 1.273 5.692 1.273 2.44 0 4.288-0.568 5.544-1.707zM75.342 21.915c-0.994 0-1.784-0.334-2.372-1.003s-0.881-1.581-0.881-2.738c0-1.156 0.289-2.064 0.868-2.724s1.373-0.989 2.385-0.989 1.798 0.334 2.359 1.002c0.56 0.668 0.84 1.572 0.84 2.711 0 1.175-0.285 2.092-0.855 2.752s-1.351 0.988-2.344 0.988zM96.241 24.761l0.032-0.016c1.038-0.554 1.895-1.402 2.475-2.464 0.587-1.076 0.881-2.344 0.881-3.809s-0.294-2.728-0.881-3.795l-0.016-0.031c-0.569-1.027-1.425-1.874-2.491-2.449-1.084-0.587-2.349-0.881-3.795-0.881-1.481 0-2.765 0.294-3.849 0.881l-0.033 0.016c-1.034 0.559-1.889 1.405-2.475 2.464-0.587 1.066-0.881 2.331-0.881 3.795s0.294 2.733 0.881 3.809l0.016 0.031c0.564 1.031 1.421 1.879 2.492 2.449 1.084 0.578 2.368 0.867 3.849 0.867 1.446 0 2.711-0.289 3.795-0.867zM92.446 22.512c-1.030 0-1.816-0.329-2.359-0.99-0.542-0.659-0.813-1.675-0.813-3.049 0-1.355 0.276-2.362 0.827-3.021 0.551-0.661 1.333-0.99 2.344-0.99 0.994 0 1.762 0.329 2.304 0.989s0.813 1.667 0.813 3.022c0 1.374-0.271 2.391-0.813 3.049s-1.31 0.99-2.304 0.99zM106.351 25.412h-4.092v-13.741h4.092v13.741zM113.778 23.417l0.056 0.101 0.010 0.017c0.277 0.46 0.648 0.858 1.099 1.173l0.204 0.135c0.84 0.524 1.82 0.786 2.941 0.786 1.192 0 2.245-0.289 3.158-0.868 0.913-0.577 1.631-1.4 2.155-2.466s0.786-2.312 0.786-3.74c0-1.429-0.263-2.688-0.786-3.782s-1.242-1.943-2.155-2.548-1.965-0.908-3.158-0.908c-1.121 0-2.101 0.271-2.941 0.813-0.7 0.452-1.209 1.035-1.527 1.751l-0.043 0.106-0.26-2.317h-3.849c0.090 0.65 0.15 1.305 0.177 1.965s0.040 1.314 0.040 1.965v15.665h4.093l-0.001-7.849zM116.922 22.512c-1.030 0-1.816-0.344-2.358-1.031s-0.813-1.681-0.813-2.982c0-1.301 0.271-2.299 0.813-2.995s1.328-1.045 2.358-1.045c0.994 0 1.767 0.362 2.318 1.085s0.826 1.726 0.826 3.009-0.271 2.264-0.813 2.941c-0.542 0.678-1.319 1.016-2.331 1.016zM136.398 24.49c-1.039 0.759-2.471 1.139-4.296 1.139-2.62 0-4.689-0.561-6.207-1.681l1.112-2.846c0.695 0.506 1.501 0.917 2.367 1.191l0.059 0.016c0.894 0.28 1.793 0.42 2.696 0.42 0.705 0 1.247-0.113 1.626-0.339s0.569-0.537 0.569-0.936c0-0.344-0.136-0.61-0.407-0.8-0.271-0.188-0.75-0.365-1.436-0.527l-2.25-0.543c-1.337-0.271-2.317-0.723-2.941-1.355s-0.935-1.473-0.935-2.52c0-0.85 0.248-1.604 0.745-2.264s1.188-1.179 2.073-1.559 1.915-0.569 3.090-0.569c0.994 0 1.952 0.15 2.873 0.447 0.961 0.312 1.797 0.741 2.548 1.28l-0.027-0.019-1.138 2.737c-0.62-0.441-1.333-0.817-2.093-1.091l-0.062-0.020c-0.632-0.234-1.363-0.373-2.125-0.38l-0.003-0c-0.668 0-1.192 0.118-1.572 0.353s-0.569 0.56-0.569 0.976c0 0.307 0.113 0.551 0.339 0.731s0.628 0.344 1.207 0.488l2.304 0.516c1.409 0.325 2.43 0.813 3.063 1.464s0.949 1.518 0.949 2.602c0 1.301-0.52 2.331-1.559 3.090zM145.519 25.629c1.031 0 1.929-0.249 2.697-0.746 0.568-0.374 1.032-0.86 1.371-1.429l0.011-0.020 0.014-0.025v2.005h3.985v-13.745h-4.12v7.59c0 0.958-0.262 1.726-0.786 2.304s-1.202 0.868-2.033 0.868c-0.741 0-1.288-0.203-1.64-0.61s-0.529-1.035-0.529-1.884v-8.264h-4.093v8.185c0 1.934 0.424 3.379 1.274 4.337s2.132 1.436 3.848 1.436zM160.997 17.849v7.562h-4.093v-9.812c0-0.651-0.013-1.306-0.040-1.965s-0.086-1.315-0.176-1.965h3.849l0.231 2.084 0.125-0.217c0.356-0.587 0.823-1.071 1.375-1.436l0.017-0.010c0.786-0.515 1.731-0.772 2.833-0.772 1.247 0 2.236 0.32 2.968 0.961l0.153 0.143c0.348 0.344 0.634 0.772 0.858 1.28l0.075 0.185 0.090-0.154c0.397-0.624 0.905-1.141 1.501-1.536l0.019-0.012c0.868-0.579 1.852-0.868 2.954-0.868 1.573 0 2.738 0.479 3.496 1.437s1.139 2.403 1.139 4.336v8.322h-4.093v-8.186c0-0.939-0.153-1.625-0.46-2.059s-0.813-0.651-1.518-0.651c-0.813 0-1.455 0.295-1.925 0.881-0.47 0.588-0.705 1.405-0.705 2.454v7.562h-4.093v-8.186c0-0.939-0.153-1.625-0.46-2.059s-0.805-0.651-1.491-0.651c-0.831 0-1.478 0.295-1.938 0.881-0.461 0.588-0.692 1.405-0.692 2.454z"></path>
<path fill="#d8d8d8" style="fill: var(--color1, #d8d8d8)" d="M0 0.376v2.259h26.353v-2.259h-26.353zM0 4.894v2.259h26.353v-2.259h-26.353zM0 9.412v2.259h26.353v-2.259h-26.353zM0 13.929v2.259h26.353v-2.259h-26.353zM0 18.447v2.259h26.353v-2.259h-26.353zM0 22.965v2.259h26.353v-2.259h-26.353zM0 27.482v2.259h26.353v-2.259h-26.353z"></path>
</symbol>
<symbol id="icon-1" viewBox="0 0 165 32">
<path fill="#d8d8d8" style="fill: var(--color1, #d8d8d8)" d="M96.614 9.171c0.41-0.373 0.615-0.837 0.615-1.394 0-0.57-0.205-1.042-0.615-1.416s-0.951-0.559-1.624-0.559-1.214 0.186-1.624 0.559c-0.41 0.373-0.614 0.845-0.614 1.416l0-0.002c-0 0.013-0 0.026-0 0.038 0 0.54 0.237 1.024 0.614 1.357 0.41 0.373 0.951 0.559 1.624 0.559s1.214-0.186 1.624-0.559zM48.45 20.593h-5.003v-12.64h-3.752v15.514h8.754v-2.875zM59.169 22.863l0.030-0.015c0.925-0.491 1.695-1.236 2.23-2.169 0.549-0.95 0.823-2.062 0.823-3.335s-0.274-2.385-0.823-3.336l-0.014-0.027c-0.521-0.906-1.291-1.651-2.246-2.156-0.958-0.505-2.044-0.757-3.259-0.757s-2.304 0.252-3.269 0.757l-0.030 0.015c-0.93 0.489-1.703 1.234-2.241 2.168-0.549 0.951-0.823 2.063-0.823 3.336s0.274 2.384 0.823 3.335l0.014 0.027c0.523 0.908 1.297 1.654 2.258 2.157 0.965 0.504 2.055 0.757 3.269 0.757s2.301-0.253 3.259-0.757zM55.91 20.35c-0.716 0-1.32-0.256-1.81-0.768s-0.734-1.257-0.734-2.238 0.245-1.73 0.734-2.249c0.491-0.52 1.094-0.779 1.81-0.779s1.317 0.26 1.8 0.779c0.483 0.519 0.724 1.269 0.724 2.249s-0.241 1.726-0.724 2.238-1.082 0.768-1.8 0.768zM73.816 28.667c0.907-0.542 1.58-1.269 2.019-2.184s0.658-1.942 0.658-3.083v-12.178h-3.73v2.215l-0.010-0.025c-0.309-0.702-0.824-1.294-1.483-1.709-0.673-0.424-1.477-0.636-2.414-0.636-1.009 0-1.912 0.252-2.709 0.757s-1.426 1.228-1.887 2.172c-0.461 0.943-0.691 2.059-0.691 3.346 0 1.272 0.23 2.384 0.691 3.335s1.090 1.679 1.887 2.184c0.797 0.504 1.701 0.757 2.709 0.757 0.936 0 1.741-0.213 2.414-0.637l0.016-0.009c0.644-0.405 1.158-0.997 1.477-1.724v2.152c0 0.98-0.238 1.693-0.713 2.139s-1.101 0.669-1.877 0.669c-0.673 0-1.218-0.139-1.635-0.417l-0.007-0.004c-0.395-0.261-0.685-0.669-0.793-1.159h-3.709c0.219 1.493 0.882 2.674 1.986 3.544s2.578 1.305 4.421 1.305c1.346 0 2.472-0.27 3.379-0.811zM70.063 20.329c-0.805 0-1.451-0.264-1.941-0.79s-0.735-1.258-0.735-2.194 0.245-1.668 0.735-2.194c0.49-0.526 1.137-0.79 1.941-0.79 0.79 0 1.438 0.267 1.943 0.801s0.757 1.262 0.757 2.184c0 0.907-0.252 1.63-0.757 2.172s-1.152 0.812-1.942 0.812zM88.068 22.863l0.030-0.015c0.925-0.491 1.694-1.236 2.23-2.169 0.549-0.95 0.823-2.062 0.823-3.335s-0.274-2.385-0.823-3.336l-0.014-0.027c-0.521-0.906-1.291-1.65-2.246-2.156-0.958-0.505-2.044-0.757-3.259-0.757s-2.304 0.252-3.269 0.757l-0.030 0.015c-0.93 0.489-1.703 1.234-2.241 2.168-0.549 0.951-0.823 2.063-0.823 3.336s0.274 2.384 0.823 3.335l0.014 0.027c0.523 0.908 1.297 1.654 2.257 2.157 0.965 0.504 2.055 0.757 3.269 0.757s2.3-0.253 3.259-0.757zM84.809 20.35c-0.717 0-1.32-0.256-1.81-0.768s-0.735-1.257-0.735-2.238 0.245-1.73 0.735-2.249c0.49-0.52 1.093-0.779 1.81-0.779s1.317 0.26 1.8 0.779c0.482 0.519 0.724 1.269 0.724 2.249s-0.242 1.726-0.724 2.238c-0.483 0.512-1.083 0.768-1.8 0.768zM96.856 11.223v12.244h-3.752v-12.244h3.752zM103.197 21.25l0.009 0.024c0.297 0.704 0.805 1.298 1.461 1.709 0.673 0.424 1.477 0.637 2.414 0.637 1.010 0 1.912-0.253 2.71-0.757s1.426-1.233 1.887-2.184c0.46-0.95 0.691-2.062 0.691-3.335 0-1.288-0.231-2.402-0.691-3.347-0.461-0.943-1.090-1.667-1.887-2.171s-1.701-0.757-2.71-0.757c-0.936 0-1.741 0.212-2.414 0.636l-0.015 0.009c-0.641 0.402-1.149 0.996-1.455 1.724v-2.216h-3.752v18.081h3.752v-8.053zM105.874 20.328c-0.79 0-1.437-0.27-1.942-0.811s-0.757-1.265-0.757-2.172c0-0.922 0.252-1.65 0.757-2.184s1.152-0.801 1.942-0.801c0.805 0 1.452 0.264 1.942 0.79s0.735 1.258 0.735 2.194c0 0.936-0.245 1.668-0.735 2.194s-1.138 0.79-1.942 0.79zM122.2 23.16c-0.717 0.307-1.565 0.461-2.546 0.461-1.653 0-2.977-0.366-3.971-1.097s-1.602-1.778-1.822-3.138h3.621c0.059 0.526 0.282 0.93 0.67 1.207s0.888 0.417 1.502 0.417c0.424 0 0.747-0.099 0.966-0.296 0.219-0.198 0.329-0.457 0.329-0.779 0-0.424-0.201-0.728-0.603-0.91s-1.058-0.376-1.964-0.581c-0.907-0.19-1.653-0.395-2.238-0.615-0.604-0.231-1.113-0.595-1.51-1.059l-0.004-0.005c-0.424-0.491-0.636-1.16-0.636-2.008 0-1.097 0.417-1.986 1.251-2.666s2.011-1.020 3.532-1.020c1.551 0 2.791 0.388 3.72 1.163s1.51 1.8 1.745 3.072h-3.511c-0.103-0.497-0.333-0.888-0.692-1.173s-0.808-0.428-1.349-0.428c-0.424 0-0.746 0.091-0.965 0.274s-0.329 0.442-0.329 0.779c0 0.381 0.201 0.666 0.603 0.856s1.035 0.38 1.898 0.57c0.936 0.219 1.704 0.443 2.304 0.67 0.623 0.241 1.147 0.621 1.553 1.102l0.005 0.006c0.439 0.512 0.658 1.2 0.658 2.062 0 0.702-0.19 1.324-0.571 1.865s-0.929 0.966-1.646 1.272zM130.911 23.598c0.921 0 1.73-0.213 2.424-0.636 0.678-0.41 1.214-0.993 1.558-1.688l0.011-0.024v2.216h3.774v-12.244h-3.774v6.494c0 0.893-0.219 1.58-0.658 2.063s-1.038 0.724-1.799 0.724c-0.731 0-1.313-0.23-1.745-0.691s-0.647-1.109-0.647-1.942v-6.648h-3.73v7.109c0 1.639 0.413 2.926 1.24 3.863 0.827 0.936 1.942 1.404 3.346 1.404zM145.020 16.971v6.495h-3.752v-12.244h3.752v2.085c0.324-0.688 0.833-1.243 1.464-1.615l0.017-0.009c0.666-0.395 1.445-0.592 2.337-0.592 0.936 0 1.763 0.216 2.48 0.648s1.258 1.049 1.624 1.854c0.422-0.755 1.013-1.37 1.724-1.809l0.021-0.012c0.684-0.427 1.514-0.681 2.404-0.681 0.015 0 0.030 0 0.045 0l-0.002-0c1.506 0 2.692 0.465 3.554 1.394s1.295 2.219 1.295 3.873v7.109h-3.73v-6.67c0-0.776-0.209-1.379-0.626-1.81s-0.984-0.648-1.701-0.648c-0.746 0-1.335 0.231-1.767 0.691s-0.647 1.109-0.647 1.943v6.494h-3.752v-6.67c0-0.776-0.205-1.379-0.614-1.81s-0.973-0.648-1.69-0.648c-0.746 0-1.339 0.227-1.778 0.68s-0.658 1.105-0.658 1.953z"></path>
<path fill="#fff" style="fill: var(--color2, #fff)" d="M165.181 9.752c0 1.010-0.819 1.829-1.829 1.829s-1.829-0.819-1.829-1.829c0-1.010 0.819-1.829 1.829-1.829s1.829 0.819 1.829 1.829z"></path>
<path fill="#d8d8d8" style="fill: var(--color1, #d8d8d8)" d="M20.724 21.333h-0.004c-0.157 5.75-4.734 10.362-10.358 10.362-5.723 0-10.362-4.776-10.362-10.667s4.639-10.667 10.362-10.667h0.004c0.157-5.75 4.734-10.362 10.358-10.362 5.723 0 10.362 4.776 10.362 10.667s-4.639 10.667-10.362 10.667zM10.362 10.667c0 5.89 4.637 10.664 10.358 10.667 0.002-0.101 0.004-0.203 0.004-0.305 0-5.89-4.637-10.664-10.358-10.667-0.002 0.087-0.004 0.19-0.004 0.293 0 0.004 0 0.008 0 0.012v-0.001z"></path>
</symbol>
</defs>
</svg>
