<svg aria-hidden="true" style="position: absolute; width: 0; height: 0; overflow: hidden;" version="1.1" xmlns="http://www.w3.org/2000/svg" xmlns:xlink="http://www.w3.org/1999/xlink">
<defs>
<symbol id="icon-right" viewBox="0 0 15 32">
<path d="M13.282 17.007l-8.054 8.051c-0.256 0.258-0.611 0.418-1.004 0.418s-0.747-0.16-1.004-0.418l-1.337-1.337c-0.258-0.256-0.417-0.611-0.417-1.003s0.159-0.747 0.417-1.003l5.708-5.71-5.708-5.708c-0.258-0.256-0.417-0.611-0.417-1.003s0.159-0.747 0.417-1.003l0-0 1.332-1.351c0.256-0.258 0.611-0.418 1.004-0.418s0.747 0.16 1.004 0.418l8.052 8.052c0.563 0.556 0.563 1.457 0.007 2.014z"></path>
</symbol>
<symbol id="icon-Linkedin" viewBox="0 0 32 32">
<path d="M7.25 32v-21.099h-6.562v21.099h6.562zM3.934 8.078c2.116 0 3.81-1.764 3.81-3.881 0-2.046-1.693-3.74-3.81-3.74-2.047 0-3.74 1.694-3.74 3.74 0 2.117 1.693 3.881 3.74 3.881zM31.736 32h0.071v-11.572c0-5.646-1.271-10.021-7.904-10.021-3.175 0-5.292 1.764-6.209 3.387h-0.071v-2.893h-6.28v21.099h6.563v-10.443c0-2.752 0.493-5.363 3.881-5.363 3.386 0 3.458 3.104 3.458 5.574v10.232h6.491z"></path>
</symbol>
<symbol id="icon-Youtube" viewBox="0 0 45 32">
<path d="M43.665 5.831c-0.486-1.944-2.027-3.484-3.89-3.97-3.483-0.972-17.256-0.972-17.256-0.972s-13.855 0-17.338 0.972c-1.862 0.486-3.403 2.027-3.889 3.97-0.972 3.401-0.972 10.694-0.972 10.694s0 7.211 0.972 10.695c0.486 1.944 2.025 3.401 3.889 3.889 3.484 0.891 17.338 0.891 17.338 0.891s13.773 0 17.256-0.891c1.864-0.486 3.404-1.944 3.89-3.889 0.972-3.484 0.972-10.695 0.972-10.695s0-7.291-0.972-10.694zM17.982 23.087v-13.125l11.505 6.562-11.505 6.562z"></path>
</symbol>
<symbol id="icon-Twitter" viewBox="0 0 37 32">
<path d="M33.469 8.284c1.458-1.094 2.771-2.406 3.792-3.938-1.312 0.583-2.844 1.021-4.375 1.167 1.604-0.948 2.771-2.406 3.355-4.229-1.386 0.837-2.994 1.492-4.705 1.875l-0.108 0.020c-1.399-1.483-3.378-2.405-5.572-2.405-0.015 0-0.030 0-0.045 0h0.002c-0 0-0.001 0-0.001 0-4.228 0-7.655 3.427-7.655 7.655v0c0 0.583 0.074 1.167 0.22 1.75-6.382-0.384-11.99-3.409-15.794-7.985l-0.029-0.036c-0.657 1.094-1.021 2.406-1.021 3.865 0 2.625 1.312 4.959 3.426 6.345-1.239-0.074-2.479-0.365-3.499-0.948v0.073c0 3.719 2.624 6.782 6.124 7.51-0.582 0.146-1.312 0.292-1.968 0.292-0.511 0-0.948-0.074-1.459-0.146 0.949 3.062 3.792 5.25 7.147 5.323-2.625 2.043-5.906 3.282-9.479 3.282-0.656 0-1.239-0.074-1.823-0.146 3.355 2.187 7.364 3.427 11.74 3.427 14.073 0 21.729-11.595 21.729-21.729v-1.021z"></path>
</symbol>
<symbol id="icon-Facebook" viewBox="0 0 32 32">
<path d="M31.5 16.343c0-8.562-6.938-15.5-15.5-15.5s-15.5 6.938-15.5 15.5c0 7.75 5.625 14.188 13.062 15.312v-10.812h-3.938v-4.5h3.938v-3.375c0-3.876 2.313-6.063 5.812-6.063 1.751 0 3.501 0.313 3.501 0.313v3.813h-1.938c-1.937 0-2.562 1.187-2.562 2.437v2.875h4.312l-0.688 4.5h-3.624v10.812c7.437-1.125 13.125-7.562 13.125-15.312z"></path>
</symbol>
<symbol id="icon-logo" viewBox="0 0 208 32">
<path fill="#28a745" style="fill: var(--color1, #28a745)" d="M31.16 3.107c-3.149 0.18-9.408 0.831-13.272 3.201-0.268 0.163-0.419 0.455-0.419 0.758v20.947c0 0.665 0.726 1.085 1.338 0.776 3.975-2.004 9.725-2.552 12.568-2.701 0.971-0.051 1.725-0.83 1.725-1.765v-19.448c0-1.020-0.882-1.827-1.941-1.768zM15.213 6.309c-3.864-2.37-10.123-3.021-13.272-3.2-1.060-0.061-1.942 0.747-1.942 1.767v19.448c0 0.935 0.755 1.714 1.725 1.765 2.844 0.149 8.596 0.696 12.573 2.703 0.61 0.307 1.333-0.113 1.333-0.776v-20.961c0-0.002 0-0.004 0-0.006 0-0.313-0.166-0.587-0.414-0.74l-0.004-0.002z"></path>
<path fill="#28a745" style="fill: var(--color1, #28a745)" d="M44.109 25.263h-1.957v-16.832h9.383v1.738h-7.426v6.16h6.977v1.738h-6.977v7.196zM55.956 25.263h-1.912v-12.618h1.912v12.618zM53.885 9.225c0-0.438 0.107-0.756 0.322-0.956 0.215-0.207 0.483-0.311 0.806-0.311 0.307 0 0.573 0.104 0.795 0.312 0.222 0.206 0.333 0.525 0.333 0.955s-0.111 0.752-0.333 0.968c-0.223 0.207-0.488 0.311-0.795 0.311-0.323 0-0.591-0.104-0.806-0.312-0.215-0.215-0.323-0.536-0.323-0.967zM68.643 25.263v-8.163c0-1.029-0.234-1.796-0.702-2.303s-1.202-0.76-2.2-0.76c-1.32 0-2.287 0.357-2.901 1.070s-0.921 1.892-0.921 3.535v6.62h-1.912v-12.618h1.555l0.312 1.726h0.092c0.392-0.621 0.941-1.101 1.646-1.439 0.707-0.345 1.493-0.518 2.36-0.518 1.519 0 2.664 0.369 3.431 1.106 0.768 0.729 1.151 1.9 1.151 3.512v8.232h-1.912zM82.252 25.263l-0.38-1.796h-0.093c-0.629 0.791-1.259 1.328-1.888 1.612-0.621 0.276-1.4 0.414-2.337 0.414-1.251 0-2.234-0.322-2.947-0.967-0.707-0.645-1.059-1.562-1.059-2.752 0-2.548 2.038-3.884 6.114-4.006l2.141-0.069v-0.783c0-0.99-0.215-1.72-0.645-2.188-0.422-0.476-1.101-0.713-2.038-0.713-1.052 0-2.241 0.322-3.569 0.967l-0.587-1.462c0.585-0.322 1.263-0.594 1.975-0.781l0.063-0.014c0.67-0.181 1.439-0.286 2.233-0.287h0.001c1.504 0 2.617 0.333 3.339 1.001 0.729 0.668 1.093 1.738 1.093 3.212v8.612h-1.416zM77.934 23.916c1.19 0 2.122-0.326 2.797-0.979 0.683-0.652 1.025-1.566 1.025-2.74v-1.139l-1.912 0.081c-1.519 0.053-2.617 0.291-3.293 0.713-0.668 0.414-1.002 1.064-1.002 1.945 0 0.691 0.208 1.217 0.623 1.578 0.421 0.36 1.009 0.541 1.76 0.541zM96.253 25.263v-8.163c0-1.029-0.234-1.796-0.702-2.303s-1.202-0.76-2.199-0.76c-1.32 0-2.288 0.357-2.902 1.070s-0.921 1.892-0.921 3.535v6.62h-1.911v-12.618h1.555l0.311 1.726h0.092c0.392-0.621 0.941-1.101 1.646-1.439 0.707-0.345 1.493-0.518 2.36-0.518 1.52 0 2.664 0.369 3.431 1.106 0.768 0.729 1.151 1.9 1.151 3.512v8.232h-1.911zM107.144 25.493c-1.827 0-3.242-0.56-4.248-1.681-0.998-1.128-1.497-2.72-1.497-4.778 0-2.11 0.507-3.741 1.52-4.893 1.021-1.151 2.472-1.726 4.352-1.726 0.606 0 1.213 0.065 1.819 0.195s1.082 0.284 1.427 0.46l-0.587 1.624c-0.422-0.168-0.883-0.307-1.382-0.414-0.395-0.102-0.85-0.164-1.318-0.173l-0.006-0c-2.563 0-3.845 1.635-3.845 4.904 0 1.55 0.311 2.74 0.932 3.569 0.63 0.829 1.558 1.244 2.787 1.244 1.051 0 2.13-0.227 3.235-0.68v1.693c-0.845 0.438-1.907 0.657-3.19 0.657zM118.669 25.493c-1.865 0-3.339-0.568-4.421-1.704-1.075-1.136-1.612-2.713-1.612-4.733 0-2.034 0.499-3.649 1.496-4.846 1.005-1.197 2.353-1.796 4.041-1.796 1.581 0 2.832 0.522 3.753 1.566 0.921 1.036 1.382 2.406 1.382 4.109v1.209h-8.692c0.038 1.482 0.41 2.605 1.117 3.373 0.713 0.767 1.715 1.151 3.005 1.151 1.358 0 2.701-0.284 4.029-0.852v1.704c-0.675 0.291-1.316 0.499-1.923 0.621-0.599 0.131-1.324 0.195-2.176 0.195zM118.151 14.015c-1.013 0-1.823 0.33-2.429 0.989-0.599 0.66-0.952 1.574-1.059 2.74h6.597c0-1.204-0.269-2.125-0.806-2.763-0.537-0.645-1.304-0.967-2.302-0.967z"></path>
<path fill="#fff" style="fill: var(--color2, #fff)" d="M133.942 25.263v-16.832h1.957v15.059h7.426v1.773h-9.383zM151.235 25.493c-1.865 0-3.339-0.568-4.421-1.704-1.075-1.136-1.612-2.713-1.612-4.733 0-2.034 0.499-3.649 1.496-4.846 1.005-1.197 2.353-1.796 4.041-1.796 1.581 0 2.832 0.522 3.753 1.566 0.921 1.036 1.382 2.406 1.382 4.109v1.209h-8.693c0.039 1.482 0.411 2.605 1.117 3.373 0.713 0.767 1.715 1.151 3.005 1.151 1.358 0 2.701-0.284 4.029-0.852v1.704c-0.675 0.291-1.316 0.499-1.923 0.621-0.599 0.131-1.324 0.195-2.176 0.195zM150.717 14.015c-1.013 0-1.823 0.33-2.429 0.989-0.599 0.66-0.952 1.574-1.059 2.74h6.597c0-1.204-0.269-2.125-0.806-2.763-0.537-0.645-1.304-0.967-2.302-0.967zM167.733 23.571h-0.104c-0.883 1.282-2.203 1.923-3.96 1.923-1.651 0-2.936-0.564-3.858-1.693-0.913-1.128-1.37-2.732-1.37-4.812s0.461-3.696 1.382-4.847c0.921-1.151 2.203-1.726 3.846-1.726 1.711 0 3.024 0.621 3.937 1.864h0.15l-0.081-0.909-0.045-0.887v-5.134h1.911v17.914h-1.555l-0.253-1.693zM163.911 23.893c1.304 0 2.248-0.354 2.832-1.059 0.591-0.713 0.887-1.861 0.887-3.443v-0.403c0-1.789-0.3-3.063-0.899-3.823-0.591-0.766-1.539-1.15-2.844-1.15-1.12 0-1.98 0.438-2.579 1.312-0.591 0.867-0.887 2.095-0.887 3.684 0 1.612 0.296 2.829 0.887 3.65s1.459 1.232 2.602 1.232zM183.932 12.645v1.208l-2.337 0.276c0.215 0.269 0.407 0.622 0.575 1.059 0.169 0.429 0.253 0.918 0.253 1.462 0 1.236-0.422 2.223-1.267 2.959s-2.003 1.106-3.477 1.106c-0.376 0-0.729-0.031-1.059-0.093-0.813 0.429-1.22 0.971-1.22 1.624 0 0.345 0.142 0.603 0.426 0.771 0.284 0.161 0.771 0.242 1.462 0.242h2.234c1.366 0 2.413 0.288 3.143 0.864 0.737 0.575 1.106 1.412 1.106 2.509 0 1.397-0.561 2.46-1.681 3.189-1.121 0.737-2.756 1.106-4.905 1.106-1.65 0-2.924-0.307-3.822-0.921-0.89-0.615-1.336-1.482-1.336-2.602 0-0.768 0.246-1.432 0.737-1.992s1.182-0.941 2.072-1.14c-0.334-0.155-0.609-0.386-0.813-0.672l-0.004-0.006c-0.202-0.289-0.323-0.647-0.323-1.034 0-0.013 0-0.026 0-0.040l-0 0.002c0-0.461 0.123-0.863 0.368-1.208s0.633-0.68 1.163-1.002c-0.653-0.269-1.186-0.725-1.6-1.37-0.407-0.644-0.611-1.381-0.611-2.211 0-1.381 0.414-2.445 1.244-3.189 0.829-0.752 2.003-1.128 3.523-1.128 0.66 0 1.255 0.077 1.784 0.231h4.364zM173.869 27.382c0 0.682 0.288 1.201 0.863 1.554s1.401 0.531 2.476 0.531c1.604 0 2.79-0.243 3.557-0.726 0.776-0.476 1.163-1.124 1.163-1.945 0-0.684-0.211-1.16-0.633-1.428-0.422-0.261-1.217-0.392-2.383-0.392h-2.291c-0.867 0-1.543 0.207-2.026 0.621s-0.725 1.011-0.725 1.785zM174.905 16.686c0 0.883 0.249 1.549 0.749 2.003s1.193 0.68 2.084 0.68c1.864 0 2.797-0.906 2.797-2.717 0-1.895-0.944-2.844-2.832-2.844-0.899 0-1.589 0.243-2.072 0.726s-0.726 1.201-0.726 2.152zM191.853 25.493c-1.865 0-3.339-0.568-4.421-1.704-1.075-1.136-1.612-2.713-1.612-4.733 0-2.034 0.499-3.649 1.497-4.846 1.005-1.197 2.352-1.796 4.040-1.796 1.581 0 2.833 0.522 3.753 1.566 0.921 1.036 1.382 2.406 1.382 4.109v1.209h-8.692c0.038 1.482 0.41 2.605 1.117 3.373 0.714 0.767 1.715 1.151 3.005 1.151 1.359 0 2.702-0.284 4.029-0.852v1.704c-0.675 0.291-1.316 0.499-1.923 0.621-0.599 0.131-1.324 0.195-2.176 0.195zM191.335 14.015c-1.013 0-1.823 0.33-2.429 0.989-0.599 0.66-0.952 1.574-1.059 2.74h6.597c0-1.204-0.269-2.125-0.806-2.763-0.537-0.645-1.304-0.967-2.302-0.967zM205.519 12.415c0.56 0 1.063 0.045 1.508 0.137l-0.265 1.773c-0.412-0.101-0.887-0.164-1.375-0.173l-0.006-0c-1.021 0-1.896 0.414-2.625 1.243-0.722 0.829-1.083 1.861-1.083 3.097v6.77h-1.911v-12.618h1.577l0.219 2.337h0.092c0.468-0.821 1.032-1.454 1.693-1.9 0.603-0.418 1.349-0.668 2.155-0.668 0.007 0 0.015 0 0.023 0h-0.001z"></path>
</symbol>
<symbol id="icon-triangle" viewBox="0 0 32 32">
<path d="M16 2c0.887 0 1.706 0.469 2.156 1.237l13.5 23c0.456 0.775 0.456 1.731 0.012 2.506s-1.275 1.256-2.169 1.256h-27c-0.894 0-1.725-0.481-2.169-1.256s-0.438-1.738 0.013-2.506l13.5-23c0.45-0.769 1.269-1.237 2.156-1.237zM16 10c-0.831 0-1.5 0.669-1.5 1.5v7c0 0.831 0.669 1.5 1.5 1.5s1.5-0.669 1.5-1.5v-7c0-0.831-0.669-1.5-1.5-1.5zM18 24c0-1.106-0.894-2-2-2s-2 0.894-2 2 0.894 2 2 2 2-0.894 2-2z"></path>
</symbol>
</defs>
</svg>
