<svg aria-hidden="true" style="position: absolute; width: 0; height: 0; overflow: hidden;" version="1.1" xmlns="http://www.w3.org/2000/svg" xmlns:xlink="http://www.w3.org/1999/xlink">
<defs>
<symbol id="icon-triangle" viewBox="0 0 32 32">
<path d="M16 2c0.887 0 1.706 0.469 2.156 1.237l13.5 23c0.456 0.775 0.456 1.731 0.012 2.506s-1.275 1.256-2.169 1.256h-27c-0.894 0-1.725-0.481-2.169-1.256s-0.438-1.738 0.013-2.506l13.5-23c0.45-0.769 1.269-1.237 2.156-1.237zM16 10c-0.831 0-1.5 0.669-1.5 1.5v7c0 0.831 0.669 1.5 1.5 1.5s1.5-0.669 1.5-1.5v-7c0-0.831-0.669-1.5-1.5-1.5zM18 24c0-1.106-0.894-2-2-2s-2 0.894-2 2 0.894 2 2 2 2-0.894 2-2z"></path>
</symbol>
</defs>
</svg>
